# xmcd CD database file
#
# Track frame offsets:
#	150
#	7248
#	23038
#	42985
#	61360
#	78529
#	95726
#	111240
#	130796
#	149180
#
# Disc length: 2212 seconds
#
# Revision: 0
# Processed by: cddbd v1.5.1PL0 Copyright (c) Steve Scherf et al.
# Submitted via: CDex 1.51
#
DISCID=9108a20a
DTITLE=chickenrace - 7134
DYEAR=2005
DGENRE=Rock
TTITLE0=INTRO
TTITLE1=Story of my life
TTITLE2=West Over
TTITLE3=7134
TTITLE4=Longtime and Sillyway
TTITLE5=D
TTITLE6=Renovate
TTITLE7=Past
TTITLE8=For from the Ordinary
TTITLE9=My Opinion
EXTD=YEAR: 2005
EXTT0=
EXTT1=
EXTT2=
EXTT3=
EXTT4=
EXTT5=
EXTT6=
EXTT7=
EXTT8=
EXTT9=
PLAYORDER=
